<svg id="Layer_1" data-name="Layer 1" xmlns="http://www.w3.org/2000/svg" viewBox="0 0 1618 313"><defs><style>.cls-1{fill:#fff;}.cls-2{fill:#3dae2b;}</style></defs><path class="cls-1" d="M305.84,112c-.5-.7-.9-1.4-2.1-1.4h-1.2a2.05,2.05,0,0,0-2.1,1.4L261,197.6a2.17,2.17,0,0,0,2.1,3.2h11.1a3.67,3.67,0,0,0,3.7-2.6l6.3-13.7h38l6.3,13.7c.9,1.9,1.9,2.6,3.7,2.6h11.1c1.9,0,3-1.6,2.1-3.2ZM290,170.4l12.5-27.8h.5l12.8,27.8Z"/><path class="cls-1" d="M426.74,112h-11.6a2.32,2.32,0,0,0-2.3,2.3v52.4h-.2l-52.9-56.1h-3.2a2.26,2.26,0,0,0-2.3,2.3v85.4a2.47,2.47,0,0,0,2.3,2.3h11.6a2.32,2.32,0,0,0,2.3-2.3V143.7h.2l53.1,58.2h3a2.26,2.26,0,0,0,2.3-2.3V114.3A2.2,2.2,0,0,0,426.74,112Z"/><path class="cls-1" d="M483.74,112c-.5-.7-.9-1.4-2.1-1.4h-1.2a2.05,2.05,0,0,0-2.1,1.4l-39.4,85.6a2.17,2.17,0,0,0,2.1,3.2h11.1a3.67,3.67,0,0,0,3.7-2.6l6.3-13.7h38l6.3,13.7c.9,1.9,1.9,2.6,3.7,2.6h11.1c1.9,0,3-1.6,2.1-3.2Zm-15.8,58.4,12.5-27.8h.5l12.8,27.8Z"/><path class="cls-1" d="M592.34,178.1a2.42,2.42,0,0,0-3.2,0,30,30,0,0,1-19.5,7.2c-16.2,0-28.5-13.5-28.5-29.2,0-16,12.1-29.7,28.3-29.7a30.28,30.28,0,0,1,19.5,7.4,2.23,2.23,0,0,0,3.2,0l7.7-7.9a2.43,2.43,0,0,0-.2-3.5c-8.6-7.7-17.9-11.8-30.6-11.8a45.7,45.7,0,1,0,0,91.4,43.36,43.36,0,0,0,30.9-12.3,2.51,2.51,0,0,0,.2-3.5Z"/><path class="cls-1" d="M652.44,110.6a45.7,45.7,0,1,0,45.7,45.9A45.5,45.5,0,0,0,652.44,110.6Zm0,74.9a29.1,29.1,0,0,1,0-58.2,29.1,29.1,0,1,1,0,58.2Z"/><path class="cls-1" d="M784.64,112H773a2.32,2.32,0,0,0-2.3,2.3v52.4h-.2l-52.9-56.1h-3.2a2.26,2.26,0,0,0-2.3,2.3v85.4a2.47,2.47,0,0,0,2.3,2.3H726a2.32,2.32,0,0,0,2.3-2.3V143.7h.2l53.1,58.2h3a2.26,2.26,0,0,0,2.3-2.3V114.3A2.47,2.47,0,0,0,784.64,112Z"/><path class="cls-1" d="M835.44,112h-30.2a2.47,2.47,0,0,0-2.3,2.3v84a2.26,2.26,0,0,0,2.3,2.3h30.2a44.47,44.47,0,0,0,44.5-44.5C879.94,131.9,860,112,835.44,112ZM834,185.3h-14.6v-58h14.4c16.5,0,28.5,12.5,28.5,29C862.54,172.7,850.54,185.3,834,185.3Z"/><path class="cls-1" d="M964.84,197.8l-39.2-85.4c-.5-.7-.9-1.4-2.1-1.4h-1.2a2.05,2.05,0,0,0-2.1,1.4l-39.4,85.4a2.17,2.17,0,0,0,2.1,3.2H894a3.67,3.67,0,0,0,3.7-2.6l6.3-13.7h38l6.3,13.7c.9,1.9,1.9,2.6,3.7,2.6h11.1A2.17,2.17,0,0,0,964.84,197.8Zm-54.7-27.4,12.5-27.8h.5l12.7,27.8Z"/><path class="cls-1" d="M980.64,199.4h.7a.54.54,0,0,0,.5-.5v-2.3h1.4l.9,2.6c0,.2.2.2.5.2h.9a.54.54,0,0,0,.5-.5c-.5-.7-.7-1.6-1.2-2.3a2.27,2.27,0,0,0,1.6-2.3,2.52,2.52,0,0,0-2.6-2.6h-3a.54.54,0,0,0-.5.5v6.7C980.44,199.4,980.44,199.4,980.64,199.4Zm1.2-6.2h1.9a.83.83,0,0,1,.9.9,1,1,0,0,1-.9.9h-1.9Z"/><path class="cls-1" d="M982.94,203.1a7.26,7.26,0,0,0,7.4-7.4,7.4,7.4,0,1,0-7.4,7.4Zm0-13.7a6,6,0,1,1-6,6A6.15,6.15,0,0,1,982.94,189.4Z"/><path class="cls-2" d="M96.84,197.6v-.5A86.85,86.85,0,0,1,98,183.6v-.5l-.5-.2a113.37,113.37,0,0,1-12.1-6l-.5-.2-.2.5a127.32,127.32,0,0,0-6.5,16.2l-.2.5.5.2a87.92,87.92,0,0,0,17.6,3.2Z"/><path class="cls-2" d="M108.94,118h0c-3.5,0-6.7.2-10.2.5a73.09,73.09,0,0,0,1.9,10.2A41.52,41.52,0,0,1,108.94,118Z"/><path class="cls-2" d="M96.84,201.7v-.5h-.5a119.4,119.4,0,0,1-15.1-2.6l-1.4-.2.7,1.2A80.6,80.6,0,0,0,97,217.7l.9.9V217A141.18,141.18,0,0,1,96.84,201.7Z"/><path class="cls-2" d="M121.24,81.6A80.57,80.57,0,0,0,104,90a100.86,100.86,0,0,1,11.8,2.8A104.44,104.44,0,0,1,121.24,81.6Z"/><path class="cls-2" d="M146.44,77.4a83.34,83.34,0,0,0-8.8.5,89.23,89.23,0,0,1,11.8,9.5l3,2.8-3,3a69.75,69.75,0,0,0-7.4,7.9v.2a16.43,16.43,0,0,0-1.2,1.4,52.4,52.4,0,0,1,5.6-.2,53.4,53.4,0,0,1,0,106.8,51.82,51.82,0,0,1-27.8-7.9,97.07,97.07,0,0,1-12.1.7,52.4,52.4,0,0,1-5.6-.2,181.18,181.18,0,0,0,1.6,18.8,77,77,0,0,0,43.8,13.5,78.4,78.4,0,0,0,.1-156.8Z"/><path class="cls-2" d="M136,96a62.71,62.71,0,0,1,4.9-5.3c-3.7-3-7.7-6-11.6-8.6a98.54,98.54,0,0,0-6.5,13c3.5,1.4,7,2.8,10.4,4.4C134.64,97.6,135.84,96.2,136,96Z"/><path class="cls-2" d="M82.94,140.7l.2.5.5-.2A104.06,104.06,0,0,1,95,133.8l.5-.2v-.5a87.29,87.29,0,0,1-2.6-13.7v-.5h-.5a113.37,113.37,0,0,0-16.9,4.6l-.5.2.2.5A66.57,66.57,0,0,0,82.94,140.7Z"/><path class="cls-2" d="M81.94,148.1l-.5.5A105.62,105.62,0,0,0,69.64,160l-.4.4.5.5a137.16,137.16,0,0,0,13,9.7l.5.2.2-.5a103.33,103.33,0,0,1,7-10.7l.2-.5-.2-.2a103.68,103.68,0,0,1-8.1-10.2Z"/><path class="cls-2" d="M112.84,197.8h1.4l-1.2-.9a47.52,47.52,0,0,1-10.7-12.1v-.2l-.9-.5v.7a97.47,97.47,0,0,0-.9,12.3v.5h.5c1.9,0,3.7.2,5.6.2Z"/><path class="cls-2" d="M110.24,111a106.49,106.49,0,0,1,3.2-11.4,96.52,96.52,0,0,0-15.1-3.2,98,98,0,0,0-.2,15.3A121,121,0,0,1,110.24,111Z"/><path class="cls-2" d="M117.74,110.8a68.43,68.43,0,0,1,10.9-5.3,59.88,59.88,0,0,0-8.4-3.5C119.34,104.8,118.44,107.8,117.74,110.8Z"/><path class="cls-2" d="M81.34,174.4h-.5a131,131,0,0,1-11.6-8.4l-1.2-.9.2,1.4a71.47,71.47,0,0,0,6.3,21.8l.5,1.2.5-1.2a124.16,124.16,0,0,1,5.6-13Z"/><path class="cls-2" d="M91.24,100.1a81.94,81.94,0,0,0-12.1,15.5c3.9-1.2,8.1-2.1,12.3-3C91.24,108.5,91.24,104.3,91.24,100.1Z"/><path class="cls-2" d="M93.54,155.1v-1.4a52.51,52.51,0,0,1,2.3-13.9l.5-1.4-1.2.7c-3,1.9-6,3.7-9,5.8l-.5.2.7.5c2.1,2.8,4.2,5.8,6.5,8.4Z"/><path class="cls-2" d="M94.24,163.2l-.2-1.4-.7,1.2c-2.1,3-4.2,6.3-6,9.5l-.2.5.5.2a107.77,107.77,0,0,0,10.2,5.1l1.2.5-.5-1.2A47.93,47.93,0,0,1,94.24,163.2Z"/><path class="cls-2" d="M78.94,144.4l.5-.2-.2-.5a112.35,112.35,0,0,1-6.7-12.3l-.5-1.2-.5,1.4a78,78,0,0,0-3.7,22V155l.9-.9A62.38,62.38,0,0,1,78.94,144.4Z"/><path class="cls-2" d="M1016.86,111.45a2.44,2.44,0,0,1,2.47-2.34h3.24L1081.06,182h.26V112.87a2.46,2.46,0,0,1,2.46-2.46h4.54a2.55,2.55,0,0,1,2.46,2.46v87.28a2.44,2.44,0,0,1-2.46,2.34H1086l-59.53-74.31h-.13v70.54a2.47,2.47,0,0,1-2.46,2.47h-4.54a2.56,2.56,0,0,1-2.47-2.47Z"/><path class="cls-2" d="M1105.43,112.87a2.56,2.56,0,0,1,2.47-2.46h4.93a2.46,2.46,0,0,1,2.46,2.46V167c0,14.79,9.21,26.33,24.38,26.33s24.64-11.28,24.64-26.07V112.87a2.46,2.46,0,0,1,2.46-2.46h4.93a2.56,2.56,0,0,1,2.47,2.46v54.86c0,19.71-14,34.76-34.5,34.76s-34.24-15.05-34.24-34.76Z"/><path class="cls-2" d="M1230.57,109.11c13.1,0,22.57,4.54,31.39,12.06a2.51,2.51,0,0,1,.13,3.63l-3.5,3.51c-1,1.29-2.08,1.16-3.38-.13-6.74-5.84-16-9.73-24.76-9.73-20.5,0-36.19,17.25-36.19,37.35S1210,193,1230.45,193c11.28,0,17.89-4.54,24.76-9.73,1.3-1,2.34-.91,3.12-.39l3.89,3.5c1,.78.78,2.6-.13,3.51a44.51,44.51,0,0,1-31.52,12.58,46.69,46.69,0,1,1,0-93.38Z"/><path class="cls-2" d="M1278.16,112.87a2.47,2.47,0,0,1,2.47-2.46h5.06a2.55,2.55,0,0,1,2.46,2.46V192.5h37.35A2.46,2.46,0,0,1,1328,195v3.76a2.46,2.46,0,0,1-2.46,2.47h-44.87a2.47,2.47,0,0,1-2.47-2.47Z"/><path class="cls-2" d="M1342.62,112.87a2.46,2.46,0,0,1,2.46-2.46h51.09a2.47,2.47,0,0,1,2.47,2.46v3.77a2.47,2.47,0,0,1-2.47,2.46H1352.6v31.64h37.22a2.55,2.55,0,0,1,2.46,2.47V157a2.46,2.46,0,0,1-2.46,2.46H1352.6V192.5h43.57a2.47,2.47,0,0,1,2.47,2.46v3.76a2.47,2.47,0,0,1-2.47,2.47h-51.09a2.46,2.46,0,0,1-2.46-2.47Z"/><path class="cls-2" d="M1412.9,112.87a2.56,2.56,0,0,1,2.47-2.46h4.92a2.47,2.47,0,0,1,2.47,2.46V167c0,14.79,9.2,26.33,24.38,26.33s24.64-11.28,24.64-26.07V112.87a2.46,2.46,0,0,1,2.46-2.46h4.93a2.55,2.55,0,0,1,2.46,2.46v54.86c0,19.71-14,34.76-34.49,34.76s-34.24-15.05-34.24-34.76Z"/><path class="cls-2" d="M1495.89,187.57c.65-.78,1.3-1.68,1.95-2.46,1.3-1.69,2.72-2.73,4.54-1.17.91.78,10.37,9.86,21.92,9.86,10.5,0,17.37-6.62,17.37-14.27,0-8.95-7.78-14.26-22.69-20.49-14.27-6.22-22.83-12.06-22.83-26.84,0-8.82,7-23.09,27.63-23.09a42.35,42.35,0,0,1,22.17,6.62c.78.39,2.34,1.94.78,4.41-.52.77-1,1.68-1.56,2.46-1.16,1.82-2.46,2.33-4.53,1.17-.91-.52-9.08-6-17-6-13.75,0-17.9,8.82-17.9,14.27,0,8.69,6.62,13.74,17.51,18.28,17.51,7.14,28.79,13.75,28.79,28.79,0,13.49-12.84,23.35-28,23.35A42.27,42.27,0,0,1,1496.67,192C1495.64,191.07,1494.34,190,1495.89,187.57Z"/><path class="cls-2" d="M1557.48,202.49a.46.46,0,0,1-.52-.53v-5.44h-1.91c-.35,0-.53-.17-.53-.5v-.08c0-.33.18-.49.53-.49h5c.35,0,.52.16.52.49V196c0,.33-.17.5-.52.5h-1.91V202a.47.47,0,0,1-.53.53Zm4.16-6.55a.47.47,0,0,1,.53-.49h.18a.62.62,0,0,1,.62.39l1.47,3.29a.92.92,0,0,1,.09.23c0,.08,0,.15.07.21a2,2,0,0,1,.07.23h0a.68.68,0,0,1,.07-.23,1.82,1.82,0,0,1,.16-.44l1.47-3.29a.62.62,0,0,1,.62-.39h.18a.47.47,0,0,1,.53.49l.48,6a.46.46,0,0,1-.52.55h-.16a.48.48,0,0,1-.52-.5l-.29-3.71a.49.49,0,0,1,0-.17c0-.06,0-.11,0-.17a.61.61,0,0,1,0-.14h0l-1.36,3a.6.6,0,0,1-.61.42h-.09a.6.6,0,0,1-.61-.42l-1.36-3h0a.61.61,0,0,1,0,.14v.34l-.3,3.71a.48.48,0,0,1-.53.5h-.16a.46.46,0,0,1-.51-.55Z"/></svg>